<svg version="1.1" id="Layer_1" xmlns="http://www.w3.org/2000/svg" xmlns:xlink="http://www.w3.org/1999/xlink" x="0px" y="0px" viewBox="0 0 512 512" style="enable-background:new 0 0 512 512;" xml:space="preserve">
<style type="text/css">
	.st0{fill:#0399F0;stroke:#231F20;stroke-width:15;stroke-miterlimit:10;}
	.st1{fill:#1D1D1B;}
	.st2{fill:#FFFFFF;stroke:#1D1D1B;stroke-miterlimit:10;}
	.st3{fill:#231F20;}
	.st4{fill:none;stroke:#1D1D1B;stroke-width:0.6;stroke-miterlimit:10;}
	.st5{fill:none;stroke:#1D1D1B;stroke-miterlimit:10;}
</style>
<path class="st0" d="M117.92,460h276.16c36.41,0,65.92-29.51,65.92-65.92V117.92C460,81.51,430.49,52,394.08,52H117.92
	C81.51,52,52,81.51,52,117.92v276.16C52,430.49,81.51,460,117.92,460z" id="id_101" style="fill: rgb(119, 84, 178); stroke: rgb(29, 27, 46);"></path>
<path class="st1" d="M281.72,298.91l20.75,20.75c-11.2,7.42-24.64,11.74-39.08,11.74c-14.45,0-27.88-4.32-39.08-11.74
	c-7.95-5.27-14.77-12.1-20.04-20.05c-7.42-11.2-11.74-24.64-11.74-39.08c0-14.44,4.32-27.87,11.74-39.07
	c5.26-7.96,12.09-14.78,20.04-20.04c11.2-7.43,24.63-11.75,39.08-11.75c14.44,0,27.88,4.32,39.08,11.74l-20.74,20.75
	c-5.55-2.66-11.77-4.15-18.34-4.15s-12.79,1.49-18.34,4.15c-8.75,4.19-15.85,11.29-20.04,20.04c-2.65,5.55-4.14,11.77-4.14,18.33
	c0,6.56,1.49,12.79,4.14,18.34c4.2,8.75,11.29,15.85,20.05,20.04c5.55,2.65,11.77,4.14,18.33,4.14
	C269.96,303.05,276.17,301.56,281.72,298.91z" id="id_102" style="fill: rgb(255, 255, 255);"></path>
</svg>